<?xml version="1.0" encoding="UTF-8" standalone="no"?>
<!DOCTYPE svg PUBLIC "-//W3C//DTD SVG 1.1//EN" "http://www.w3.org/Graphics/SVG/1.1/DTD/svg11.dtd">
<svg width="100%" height="100%" viewBox="0 0 1695 373" version="1.1" xmlns="http://www.w3.org/2000/svg" xmlns:xlink="http://www.w3.org/1999/xlink" xml:space="preserve" xmlns:serif="http://www.serif.com/" style="fill-rule:evenodd;clip-rule:evenodd;stroke-linejoin:round;stroke-miterlimit:2;">
    <g transform="matrix(1,0,0,1,-331.702,-1567.53)">
        <g transform="matrix(1,0,0,1,-2563.84,0)">
            <g transform="matrix(0.816967,0,0,0.816967,2143.74,744.915)">
                <path d="M959.832,1322.08C961.432,1341.28 965.732,1357.58 972.732,1370.98C979.732,1384.38 988.732,1395.28 999.732,1403.68C1010.73,1412.08 1023.43,1418.18 1037.83,1421.98C1052.23,1425.78 1067.63,1427.68 1084.03,1427.68C1103.23,1427.68 1119.83,1425.28 1133.83,1420.48C1147.83,1415.68 1159.23,1409.18 1168.03,1400.98C1176.83,1392.78 1183.33,1383.28 1187.53,1372.48C1191.73,1361.68 1193.83,1350.28 1193.83,1338.28C1193.83,1321.48 1190.03,1307.88 1182.43,1297.48C1174.83,1287.08 1164.93,1278.58 1152.73,1271.98C1140.53,1265.38 1126.53,1260.08 1110.73,1256.08C1094.93,1252.08 1078.73,1248.18 1062.13,1244.38C1045.53,1240.58 1029.33,1236.08 1013.53,1230.88C997.732,1225.68 983.732,1218.68 971.532,1209.88C959.332,1201.08 949.432,1189.78 941.832,1175.98C934.232,1162.18 930.432,1144.68 930.432,1123.48C930.432,1108.68 933.532,1094.28 939.732,1080.28C945.932,1066.28 955.132,1053.88 967.332,1043.08C979.532,1032.28 994.832,1023.68 1013.23,1017.28C1031.63,1010.88 1052.83,1007.68 1076.83,1007.68C1101.23,1007.68 1122.53,1011.08 1140.73,1017.88C1158.93,1024.68 1174.03,1033.98 1186.03,1045.78C1198.03,1057.58 1207.03,1071.28 1213.03,1086.88C1219.03,1102.48 1222.03,1119.08 1222.03,1136.68L1183.03,1136.68C1183.03,1120.28 1180.13,1106.08 1174.33,1094.08C1168.53,1082.08 1160.63,1072.28 1150.63,1064.68C1140.63,1057.08 1129.23,1051.48 1116.43,1047.88C1103.63,1044.28 1090.43,1042.48 1076.83,1042.48C1056.03,1042.48 1038.53,1045.38 1024.33,1051.18C1010.13,1056.98 998.832,1064.48 990.432,1073.68C982.032,1082.88 976.232,1093.08 973.032,1104.28C969.832,1115.48 969.232,1126.68 971.232,1137.88C973.632,1151.88 979.232,1163.08 988.032,1171.48C996.832,1179.88 1007.63,1186.78 1020.43,1192.18C1033.23,1197.58 1047.33,1201.98 1062.73,1205.38C1078.13,1208.78 1093.83,1212.38 1109.83,1216.18C1125.83,1219.98 1141.33,1224.48 1156.33,1229.68C1171.33,1234.88 1184.63,1241.88 1196.23,1250.68C1207.83,1259.48 1217.13,1270.78 1224.13,1284.58C1231.13,1298.38 1234.63,1315.68 1234.63,1336.48C1234.63,1376.48 1220.83,1407.48 1193.23,1429.48C1165.63,1451.48 1126.83,1462.48 1076.83,1462.48C1054.43,1462.48 1033.63,1459.58 1014.43,1453.78C995.232,1447.98 978.632,1439.18 964.632,1427.38C950.632,1415.58 939.732,1400.98 931.932,1383.58C924.132,1366.18 920.232,1345.68 920.232,1322.08L959.832,1322.08Z" style="fill:rgb(38,96,118);fill-rule:nonzero;"/>
            </g>
        </g>
        <g transform="matrix(1,0,0,1,-2563.84,0)">
            <g transform="matrix(0.816967,0,0,0.816967,2070.62,744.915)">
                <path d="M1392.43,1322.08C1394.03,1341.28 1398.33,1357.58 1405.33,1370.98C1412.33,1384.38 1421.33,1395.28 1432.33,1403.68C1443.33,1412.08 1456.03,1418.18 1470.43,1421.98C1484.83,1425.78 1500.23,1427.68 1516.63,1427.68C1535.83,1427.68 1552.43,1425.28 1566.43,1420.48C1580.43,1415.68 1591.83,1409.18 1600.63,1400.98C1609.43,1392.78 1615.93,1383.28 1620.13,1372.48C1624.33,1361.68 1626.43,1350.28 1626.43,1338.28C1626.43,1321.48 1622.63,1307.88 1615.03,1297.48C1607.43,1287.08 1597.53,1278.58 1585.33,1271.98C1573.13,1265.38 1559.13,1260.08 1543.33,1256.08C1527.53,1252.08 1511.33,1248.18 1494.73,1244.38C1478.13,1240.58 1461.93,1236.08 1446.13,1230.88C1430.33,1225.68 1416.33,1218.68 1404.13,1209.88C1391.93,1201.08 1382.03,1189.78 1374.43,1175.98C1366.83,1162.18 1363.03,1144.68 1363.03,1123.48C1363.03,1108.68 1366.13,1094.28 1372.33,1080.28C1378.53,1066.28 1387.73,1053.88 1399.93,1043.08C1412.13,1032.28 1427.43,1023.68 1445.83,1017.28C1464.23,1010.88 1485.43,1007.68 1509.43,1007.68C1533.83,1007.68 1555.13,1011.08 1573.33,1017.88C1591.53,1024.68 1606.63,1033.98 1618.63,1045.78C1630.63,1057.58 1639.63,1071.28 1645.63,1086.88C1651.63,1102.48 1654.63,1119.08 1654.63,1136.68L1615.63,1136.68C1615.63,1120.28 1612.73,1106.08 1606.93,1094.08C1601.13,1082.08 1593.23,1072.28 1583.23,1064.68C1573.23,1057.08 1561.83,1051.48 1549.03,1047.88C1536.23,1044.28 1523.03,1042.48 1509.43,1042.48C1488.63,1042.48 1471.13,1045.38 1456.93,1051.18C1442.73,1056.98 1431.43,1064.48 1423.03,1073.68C1414.63,1082.88 1408.83,1093.08 1405.63,1104.28C1402.43,1115.48 1401.83,1126.68 1403.83,1137.88C1406.23,1151.88 1411.83,1163.08 1420.63,1171.48C1429.43,1179.88 1440.23,1186.78 1453.03,1192.18C1465.83,1197.58 1479.93,1201.98 1495.33,1205.38C1510.73,1208.78 1526.43,1212.38 1542.43,1216.18C1558.43,1219.98 1573.93,1224.48 1588.93,1229.68C1603.93,1234.88 1617.23,1241.88 1628.83,1250.68C1640.43,1259.48 1649.73,1270.78 1656.73,1284.58C1663.73,1298.38 1667.23,1315.68 1667.23,1336.48C1667.23,1376.48 1653.43,1407.48 1625.83,1429.48C1598.23,1451.48 1559.43,1462.48 1509.43,1462.48C1487.03,1462.48 1466.23,1459.58 1447.03,1453.78C1427.83,1447.98 1411.23,1439.18 1397.23,1427.38C1383.23,1415.58 1372.33,1400.98 1364.53,1383.58C1356.73,1366.18 1352.83,1345.68 1352.83,1322.08L1392.43,1322.08Z" style="fill:rgb(91,158,187);fill-rule:nonzero;"/>
            </g>
        </g>
        <g transform="matrix(1,0,0,1,-2563.84,0)">
            <g transform="matrix(1,0,0,0.861753,1647.28,689.329)">
                <path d="M1808.87,1450.35L1808.87,1019.82C1808.87,1019.82 1848.4,1019.82 1848.4,1019.82C1848.4,1019.82 1848.4,1416.28 1848.4,1416.28C1848.4,1416.69 1848.68,1417.02 1849.03,1417.02L2941.95,1417.65C2941.95,1417.65 2941.95,1450.98 2941.95,1450.98L1808.87,1450.35Z" style="fill:rgb(126,214,214);fill-rule:nonzero;"/>
            </g>
        </g>
        <g transform="matrix(1,0,0,1,-2563.84,0)">
            <g transform="matrix(1,0,0,1,2626.53,225.045)">
                <path d="M905.332,1429.58C905.599,1432.78 906.315,1435.5 907.482,1437.73C908.649,1439.96 910.149,1441.78 911.982,1443.18C913.815,1444.58 915.932,1445.6 918.332,1446.23C920.732,1446.87 923.299,1447.18 926.032,1447.18C929.232,1447.18 931.999,1446.78 934.332,1445.98C936.665,1445.18 938.565,1444.1 940.032,1442.73C941.499,1441.37 942.582,1439.78 943.282,1437.98C943.982,1436.18 944.332,1434.28 944.332,1432.28C944.332,1429.48 943.699,1427.21 942.432,1425.48C941.165,1423.75 939.515,1422.33 937.482,1421.23C935.449,1420.13 933.115,1419.25 930.482,1418.58C927.849,1417.91 925.149,1417.27 922.382,1416.63C919.615,1416 916.915,1415.25 914.282,1414.38C911.649,1413.52 909.315,1412.35 907.282,1410.88C905.249,1409.41 903.599,1407.53 902.332,1405.23C901.065,1402.93 900.432,1400.02 900.432,1396.48C900.432,1394.02 900.949,1391.62 901.982,1389.28C903.015,1386.95 904.549,1384.88 906.582,1383.08C908.615,1381.28 911.165,1379.85 914.232,1378.78C917.299,1377.71 920.832,1377.18 924.832,1377.18C928.899,1377.18 932.449,1377.75 935.482,1378.88C938.515,1380.02 941.032,1381.57 943.032,1383.53C945.032,1385.5 946.532,1387.78 947.532,1390.38C948.532,1392.98 949.032,1395.75 949.032,1398.68L942.532,1398.68C942.532,1395.95 942.049,1393.58 941.082,1391.58C940.115,1389.58 938.799,1387.95 937.132,1386.68C935.465,1385.41 933.565,1384.48 931.432,1383.88C929.299,1383.28 927.099,1382.98 924.832,1382.98C921.365,1382.98 918.449,1383.46 916.082,1384.43C913.715,1385.4 911.832,1386.65 910.432,1388.18C909.032,1389.71 908.065,1391.41 907.532,1393.28C906.999,1395.15 906.899,1397.02 907.232,1398.88C907.632,1401.21 908.565,1403.08 910.032,1404.48C911.499,1405.88 913.299,1407.03 915.432,1407.93C917.565,1408.83 919.915,1409.57 922.482,1410.13C925.049,1410.7 927.665,1411.3 930.332,1411.93C932.999,1412.57 935.582,1413.32 938.082,1414.18C940.582,1415.05 942.799,1416.21 944.732,1417.68C946.665,1419.15 948.215,1421.03 949.382,1423.33C950.549,1425.63 951.132,1428.52 951.132,1431.98C951.132,1438.65 948.832,1443.82 944.232,1447.48C939.632,1451.15 933.165,1452.98 924.832,1452.98C921.099,1452.98 917.632,1452.5 914.432,1451.53C911.232,1450.57 908.465,1449.1 906.132,1447.13C903.799,1445.16 901.982,1442.73 900.682,1439.83C899.382,1436.93 898.732,1433.52 898.732,1429.58L905.332,1429.58Z" style="fill:rgb(38,96,118);fill-rule:nonzero;"/>
                <path d="M1010.43,1415.58C1009.37,1411.71 1007.53,1408.7 1004.93,1406.53C1002.33,1404.37 999.032,1403.28 995.032,1403.28C991.965,1403.28 989.332,1403.91 987.132,1405.18C984.932,1406.45 983.132,1408.13 981.732,1410.23C980.332,1412.33 979.299,1414.7 978.632,1417.33C977.965,1419.96 977.632,1422.62 977.632,1425.28C977.632,1428.02 977.949,1430.68 978.582,1433.28C979.215,1435.88 980.232,1438.21 981.632,1440.28C983.032,1442.35 984.832,1444 987.032,1445.23C989.232,1446.46 991.899,1447.08 995.032,1447.08C999.499,1447.08 1003.08,1445.85 1005.78,1443.38C1008.48,1440.91 1010.2,1437.52 1010.93,1433.18L1017.33,1433.18C1016.8,1436.05 1015.95,1438.66 1014.78,1441.03C1013.62,1443.4 1012.12,1445.43 1010.28,1447.13C1008.45,1448.83 1006.26,1450.15 1003.73,1451.08C1001.2,1452.02 998.299,1452.48 995.032,1452.48C990.899,1452.48 987.332,1451.78 984.332,1450.38C981.332,1448.98 978.865,1447.07 976.932,1444.63C974.999,1442.2 973.565,1439.32 972.632,1435.98C971.699,1432.65 971.232,1429.08 971.232,1425.28C971.232,1421.68 971.749,1418.23 972.782,1414.93C973.815,1411.63 975.332,1408.71 977.332,1406.18C979.332,1403.65 981.815,1401.63 984.782,1400.13C987.749,1398.63 991.165,1397.88 995.032,1397.88C1001.03,1397.88 1005.88,1399.32 1009.58,1402.18C1013.28,1405.05 1015.6,1409.52 1016.53,1415.58L1010.43,1415.58Z" style="fill:rgb(38,96,118);fill-rule:nonzero;"/>
                <path d="M1060.93,1452.48C1057.6,1452.41 1054.48,1451.82 1051.58,1450.68C1048.68,1449.55 1046.15,1447.85 1043.98,1445.58C1041.82,1443.32 1040.1,1440.48 1038.83,1437.08C1037.57,1433.68 1036.93,1429.71 1036.93,1425.18C1036.93,1421.38 1037.43,1417.83 1038.43,1414.53C1039.43,1411.23 1040.93,1408.35 1042.93,1405.88C1044.93,1403.41 1047.43,1401.46 1050.43,1400.03C1053.43,1398.6 1056.93,1397.88 1060.93,1397.88C1065,1397.88 1068.53,1398.6 1071.53,1400.03C1074.53,1401.46 1077.03,1403.4 1079.03,1405.83C1081.03,1408.27 1082.52,1411.15 1083.48,1414.48C1084.45,1417.82 1084.93,1421.38 1084.93,1425.18C1084.93,1429.32 1084.37,1433.05 1083.23,1436.38C1082.1,1439.71 1080.48,1442.58 1078.38,1444.98C1076.28,1447.38 1073.75,1449.23 1070.78,1450.53C1067.82,1451.83 1064.53,1452.48 1060.93,1452.48ZM1078.53,1425.18C1078.53,1422.12 1078.2,1419.25 1077.53,1416.58C1076.87,1413.91 1075.83,1411.6 1074.43,1409.63C1073.03,1407.66 1071.23,1406.12 1069.03,1404.98C1066.83,1403.85 1064.13,1403.28 1060.93,1403.28C1057.8,1403.28 1055.12,1403.9 1052.88,1405.13C1050.65,1406.37 1048.83,1408 1047.43,1410.03C1046.03,1412.07 1045,1414.4 1044.33,1417.03C1043.66,1419.66 1043.33,1422.38 1043.33,1425.18C1043.33,1428.38 1043.71,1431.33 1044.48,1434.03C1045.25,1436.73 1046.37,1439.05 1047.83,1440.98C1049.3,1442.91 1051.13,1444.41 1053.33,1445.48C1055.53,1446.55 1058.07,1447.08 1060.93,1447.08C1064.07,1447.08 1066.75,1446.46 1068.98,1445.23C1071.21,1444 1073.03,1442.35 1074.43,1440.28C1075.83,1438.21 1076.87,1435.88 1077.53,1433.28C1078.2,1430.68 1078.53,1427.98 1078.53,1425.18Z" style="fill:rgb(38,96,118);fill-rule:nonzero;"/>
                <path d="M1125.13,1451.28C1124.4,1451.41 1123.43,1451.65 1122.23,1451.98C1121.03,1452.32 1119.7,1452.48 1118.23,1452.48C1115.23,1452.48 1112.95,1451.73 1111.38,1450.23C1109.82,1448.73 1109.03,1446.05 1109.03,1442.18L1109.03,1404.28L1101.73,1404.28L1101.73,1399.28L1109.03,1399.28L1109.03,1384.88L1115.03,1384.88L1115.03,1399.28L1124.73,1399.28L1124.73,1404.28L1115.03,1404.28L1115.03,1439.78C1115.03,1441.05 1115.07,1442.15 1115.13,1443.08C1115.2,1444.02 1115.4,1444.78 1115.73,1445.38C1116.07,1445.98 1116.58,1446.41 1117.28,1446.68C1117.98,1446.95 1118.96,1447.08 1120.23,1447.08C1121.03,1447.08 1121.85,1447.02 1122.68,1446.88C1123.52,1446.75 1124.33,1446.58 1125.13,1446.38L1125.13,1451.28Z" style="fill:rgb(38,96,118);fill-rule:nonzero;"/>
                <path d="M1163.93,1451.28C1163.2,1451.41 1162.23,1451.65 1161.03,1451.98C1159.83,1452.32 1158.5,1452.48 1157.03,1452.48C1154.03,1452.48 1151.75,1451.73 1150.18,1450.23C1148.62,1448.73 1147.83,1446.05 1147.83,1442.18L1147.83,1404.28L1140.53,1404.28L1140.53,1399.28L1147.83,1399.28L1147.83,1384.88L1153.83,1384.88L1153.83,1399.28L1163.53,1399.28L1163.53,1404.28L1153.83,1404.28L1153.83,1439.78C1153.83,1441.05 1153.87,1442.15 1153.93,1443.08C1154,1444.02 1154.2,1444.78 1154.53,1445.38C1154.87,1445.98 1155.38,1446.41 1156.08,1446.68C1156.78,1446.95 1157.77,1447.08 1159.03,1447.08C1159.83,1447.08 1160.65,1447.02 1161.48,1446.88C1162.32,1446.75 1163.13,1446.58 1163.93,1446.38L1163.93,1451.28Z" style="fill:rgb(38,96,118);fill-rule:nonzero;"/>
                <path d="M1225.13,1428.28C1225.13,1430.55 1225.21,1432.78 1225.38,1434.98C1225.55,1437.18 1226.05,1439.16 1226.88,1440.93C1227.71,1442.7 1229.02,1444.12 1230.78,1445.18C1232.55,1446.25 1235,1446.78 1238.13,1446.78C1242.8,1446.78 1246.08,1445.45 1247.98,1442.78C1249.88,1440.12 1250.83,1436.25 1250.83,1431.18L1250.83,1379.08L1257.63,1379.08L1257.63,1431.38C1257.63,1438.38 1256,1443.73 1252.73,1447.43C1249.46,1451.13 1244.33,1452.98 1237.33,1452.98C1233.27,1452.98 1230,1452.3 1227.53,1450.93C1225.07,1449.57 1223.15,1447.73 1221.78,1445.43C1220.41,1443.13 1219.5,1440.5 1219.03,1437.53C1218.57,1434.57 1218.33,1431.48 1218.33,1428.28L1225.13,1428.28Z" style="fill:rgb(38,96,118);fill-rule:nonzero;"/>
                <path d="M1304.93,1452.48C1301.6,1452.41 1298.48,1451.82 1295.58,1450.68C1292.68,1449.55 1290.15,1447.85 1287.98,1445.58C1285.82,1443.32 1284.1,1440.48 1282.83,1437.08C1281.57,1433.68 1280.93,1429.71 1280.93,1425.18C1280.93,1421.38 1281.43,1417.83 1282.43,1414.53C1283.43,1411.23 1284.93,1408.35 1286.93,1405.88C1288.93,1403.41 1291.43,1401.46 1294.43,1400.03C1297.43,1398.6 1300.93,1397.88 1304.93,1397.88C1309,1397.88 1312.53,1398.6 1315.53,1400.03C1318.53,1401.46 1321.03,1403.4 1323.03,1405.83C1325.03,1408.27 1326.52,1411.15 1327.48,1414.48C1328.45,1417.82 1328.93,1421.38 1328.93,1425.18C1328.93,1429.32 1328.37,1433.05 1327.23,1436.38C1326.1,1439.71 1324.48,1442.58 1322.38,1444.98C1320.28,1447.38 1317.75,1449.23 1314.78,1450.53C1311.82,1451.83 1308.53,1452.48 1304.93,1452.48ZM1322.53,1425.18C1322.53,1422.12 1322.2,1419.25 1321.53,1416.58C1320.87,1413.91 1319.83,1411.6 1318.43,1409.63C1317.03,1407.66 1315.23,1406.12 1313.03,1404.98C1310.83,1403.85 1308.13,1403.28 1304.93,1403.28C1301.8,1403.28 1299.12,1403.9 1296.88,1405.13C1294.65,1406.37 1292.83,1408 1291.43,1410.03C1290.03,1412.07 1289,1414.4 1288.33,1417.03C1287.66,1419.66 1287.33,1422.38 1287.33,1425.18C1287.33,1428.38 1287.71,1431.33 1288.48,1434.03C1289.25,1436.73 1290.37,1439.05 1291.83,1440.98C1293.3,1442.91 1295.13,1444.41 1297.33,1445.48C1299.53,1446.55 1302.07,1447.08 1304.93,1447.08C1308.07,1447.08 1310.75,1446.46 1312.98,1445.23C1315.21,1444 1317.03,1442.35 1318.43,1440.28C1319.83,1438.21 1320.87,1435.88 1321.53,1433.28C1322.2,1430.68 1322.53,1427.98 1322.53,1425.18Z" style="fill:rgb(38,96,118);fill-rule:nonzero;"/>
                <path d="M1356.93,1451.08L1350.93,1451.08L1350.93,1399.28L1356.93,1399.28L1356.93,1406.48C1359.33,1403.95 1361.82,1401.88 1364.38,1400.28C1366.95,1398.68 1370.03,1397.88 1373.63,1397.88C1376.83,1397.88 1379.8,1398.43 1382.53,1399.53C1385.27,1400.63 1387.57,1402.55 1389.43,1405.28C1390.7,1407.15 1391.45,1409.07 1391.68,1411.03C1391.91,1413 1392.03,1415.05 1392.03,1417.18L1392.03,1451.08L1386.03,1451.08L1386.03,1417.28C1386.03,1412.62 1385,1409.12 1382.93,1406.78C1380.87,1404.45 1377.43,1403.28 1372.63,1403.28C1370.77,1403.28 1369.07,1403.57 1367.53,1404.13C1366,1404.7 1364.62,1405.45 1363.38,1406.38C1362.15,1407.32 1361.1,1408.38 1360.23,1409.58C1359.37,1410.78 1358.7,1412.05 1358.23,1413.38C1357.63,1415.05 1357.27,1416.65 1357.13,1418.18C1357,1419.71 1356.93,1421.38 1356.93,1423.18L1356.93,1451.08Z" style="fill:rgb(38,96,118);fill-rule:nonzero;"/>
                <path d="M1455.03,1421.58C1455.03,1419.05 1454.68,1416.66 1453.98,1414.43C1453.28,1412.2 1452.25,1410.27 1450.88,1408.63C1449.52,1407 1447.8,1405.7 1445.73,1404.73C1443.66,1403.77 1441.3,1403.28 1438.63,1403.28C1435.96,1403.28 1433.62,1403.78 1431.58,1404.78C1429.55,1405.78 1427.82,1407.12 1426.38,1408.78C1424.95,1410.45 1423.8,1412.38 1422.93,1414.58C1422.07,1416.78 1421.5,1419.12 1421.23,1421.58L1455.03,1421.58ZM1421.23,1426.58C1421.23,1429.38 1421.6,1432.03 1422.33,1434.53C1423.07,1437.03 1424.15,1439.2 1425.58,1441.03C1427.02,1442.87 1428.83,1444.33 1431.03,1445.43C1433.23,1446.53 1435.77,1447.08 1438.63,1447.08C1442.57,1447.08 1445.93,1446.05 1448.73,1443.98C1451.53,1441.91 1453.4,1438.98 1454.33,1435.18L1461.03,1435.18C1460.3,1437.65 1459.33,1439.93 1458.13,1442.03C1456.93,1444.13 1455.43,1445.96 1453.63,1447.53C1451.83,1449.1 1449.7,1450.32 1447.23,1451.18C1444.77,1452.05 1441.9,1452.48 1438.63,1452.48C1434.5,1452.48 1430.93,1451.78 1427.93,1450.38C1424.93,1448.98 1422.46,1447.07 1420.53,1444.63C1418.6,1442.2 1417.16,1439.33 1416.23,1436.03C1415.3,1432.73 1414.83,1429.18 1414.83,1425.38C1414.83,1421.58 1415.38,1418.02 1416.48,1414.68C1417.58,1411.35 1419.15,1408.43 1421.18,1405.93C1423.21,1403.43 1425.7,1401.46 1428.63,1400.03C1431.57,1398.6 1434.9,1397.88 1438.63,1397.88C1445.77,1397.88 1451.37,1400.33 1455.43,1405.23C1459.5,1410.13 1461.5,1417.25 1461.43,1426.58L1421.23,1426.58Z" style="fill:rgb(38,96,118);fill-rule:nonzero;"/>
                <path d="M1487.63,1434.88C1488.57,1439.35 1490.25,1442.5 1492.68,1444.33C1495.12,1446.16 1498.6,1447.08 1503.13,1447.08C1505.33,1447.08 1507.23,1446.82 1508.83,1446.28C1510.43,1445.75 1511.75,1445.03 1512.78,1444.13C1513.82,1443.23 1514.6,1442.21 1515.13,1441.08C1515.66,1439.95 1515.93,1438.75 1515.93,1437.48C1515.93,1434.95 1515.12,1433.07 1513.48,1431.83C1511.85,1430.6 1509.8,1429.63 1507.33,1428.93C1504.87,1428.23 1502.2,1427.63 1499.33,1427.13C1496.46,1426.63 1493.8,1425.88 1491.33,1424.88C1488.87,1423.88 1486.82,1422.45 1485.18,1420.58C1483.55,1418.71 1482.73,1416.08 1482.73,1412.68C1482.73,1408.35 1484.32,1404.8 1487.48,1402.03C1490.65,1399.27 1495.13,1397.88 1500.93,1397.88C1506.53,1397.88 1511.08,1399.13 1514.58,1401.63C1518.08,1404.13 1520.2,1408.32 1520.93,1414.18L1514.83,1414.18C1514.3,1410.18 1512.78,1407.37 1510.28,1405.73C1507.78,1404.1 1504.63,1403.28 1500.83,1403.28C1497.03,1403.28 1494.13,1404.1 1492.13,1405.73C1490.13,1407.37 1489.13,1409.52 1489.13,1412.18C1489.13,1414.52 1489.95,1416.3 1491.58,1417.53C1493.21,1418.77 1495.27,1419.77 1497.73,1420.53C1500.2,1421.3 1502.87,1421.98 1505.73,1422.58C1508.6,1423.18 1511.27,1424.03 1513.73,1425.13C1516.2,1426.23 1518.25,1427.71 1519.88,1429.58C1521.52,1431.45 1522.33,1434.05 1522.33,1437.38C1522.33,1439.85 1521.8,1442.03 1520.73,1443.93C1519.66,1445.83 1518.2,1447.41 1516.33,1448.68C1514.46,1449.95 1512.25,1450.9 1509.68,1451.53C1507.12,1452.16 1504.3,1452.48 1501.23,1452.48C1498.16,1452.48 1495.45,1452.03 1493.08,1451.13C1490.71,1450.23 1488.7,1448.98 1487.03,1447.38C1485.37,1445.78 1484.07,1443.91 1483.13,1441.78C1482.2,1439.65 1481.66,1437.35 1481.53,1434.88L1487.63,1434.88Z" style="fill:rgb(38,96,118);fill-rule:nonzero;"/>
                <path d="M905.332,1529.58C905.599,1532.78 906.315,1535.5 907.482,1537.73C908.649,1539.97 910.149,1541.78 911.982,1543.18C913.815,1544.58 915.932,1545.6 918.332,1546.23C920.732,1546.87 923.299,1547.18 926.032,1547.18C929.232,1547.18 931.999,1546.78 934.332,1545.98C936.665,1545.18 938.565,1544.1 940.032,1542.73C941.499,1541.37 942.582,1539.78 943.282,1537.98C943.982,1536.18 944.332,1534.28 944.332,1532.28C944.332,1529.48 943.699,1527.21 942.432,1525.48C941.165,1523.75 939.515,1522.33 937.482,1521.23C935.449,1520.13 933.115,1519.25 930.482,1518.58C927.849,1517.91 925.149,1517.27 922.382,1516.63C919.615,1516 916.915,1515.25 914.282,1514.38C911.649,1513.52 909.315,1512.35 907.282,1510.88C905.249,1509.41 903.599,1507.53 902.332,1505.23C901.065,1502.93 900.432,1500.02 900.432,1496.48C900.432,1494.02 900.949,1491.62 901.982,1489.28C903.015,1486.95 904.549,1484.88 906.582,1483.08C908.615,1481.28 911.165,1479.85 914.232,1478.78C917.299,1477.71 920.832,1477.18 924.832,1477.18C928.899,1477.18 932.449,1477.75 935.482,1478.88C938.515,1480.02 941.032,1481.57 943.032,1483.53C945.032,1485.5 946.532,1487.78 947.532,1490.38C948.532,1492.98 949.032,1495.75 949.032,1498.68L942.532,1498.68C942.532,1495.95 942.049,1493.58 941.082,1491.58C940.115,1489.58 938.799,1487.95 937.132,1486.68C935.465,1485.41 933.565,1484.48 931.432,1483.88C929.299,1483.28 927.099,1482.98 924.832,1482.98C921.365,1482.98 918.449,1483.46 916.082,1484.43C913.715,1485.4 911.832,1486.65 910.432,1488.18C909.032,1489.71 908.065,1491.41 907.532,1493.28C906.999,1495.15 906.899,1497.02 907.232,1498.88C907.632,1501.21 908.565,1503.08 910.032,1504.48C911.499,1505.88 913.299,1507.03 915.432,1507.93C917.565,1508.83 919.915,1509.57 922.482,1510.13C925.049,1510.7 927.665,1511.3 930.332,1511.93C932.999,1512.57 935.582,1513.32 938.082,1514.18C940.582,1515.05 942.799,1516.21 944.732,1517.68C946.665,1519.15 948.215,1521.03 949.382,1523.33C950.549,1525.63 951.132,1528.52 951.132,1531.98C951.132,1538.65 948.832,1543.82 944.232,1547.48C939.632,1551.15 933.165,1552.98 924.832,1552.98C921.099,1552.98 917.632,1552.5 914.432,1551.53C911.232,1550.57 908.465,1549.1 906.132,1547.13C903.799,1545.16 901.982,1542.73 900.682,1539.83C899.382,1536.93 898.732,1533.52 898.732,1529.58L905.332,1529.58Z" style="fill:rgb(91,158,187);fill-rule:nonzero;"/>
                <path d="M1010.43,1515.58C1009.37,1511.71 1007.53,1508.7 1004.93,1506.53C1002.33,1504.37 999.032,1503.28 995.032,1503.28C991.965,1503.28 989.332,1503.91 987.132,1505.18C984.932,1506.45 983.132,1508.13 981.732,1510.23C980.332,1512.33 979.299,1514.7 978.632,1517.33C977.965,1519.96 977.632,1522.62 977.632,1525.28C977.632,1528.02 977.949,1530.68 978.582,1533.28C979.215,1535.88 980.232,1538.22 981.632,1540.28C983.032,1542.35 984.832,1544 987.032,1545.23C989.232,1546.47 991.899,1547.08 995.032,1547.08C999.499,1547.08 1003.08,1545.85 1005.78,1543.38C1008.48,1540.91 1010.2,1537.52 1010.93,1533.18L1017.33,1533.18C1016.8,1536.05 1015.95,1538.66 1014.78,1541.03C1013.62,1543.4 1012.12,1545.43 1010.28,1547.13C1008.45,1548.83 1006.26,1550.15 1003.73,1551.08C1001.2,1552.02 998.299,1552.48 995.032,1552.48C990.899,1552.48 987.332,1551.78 984.332,1550.38C981.332,1548.98 978.865,1547.07 976.932,1544.63C974.999,1542.2 973.565,1539.32 972.632,1535.98C971.699,1532.65 971.232,1529.08 971.232,1525.28C971.232,1521.68 971.749,1518.23 972.782,1514.93C973.815,1511.63 975.332,1508.71 977.332,1506.18C979.332,1503.65 981.815,1501.63 984.782,1500.13C987.749,1498.63 991.165,1497.88 995.032,1497.88C1001.03,1497.88 1005.88,1499.32 1009.58,1502.18C1013.28,1505.05 1015.6,1509.52 1016.53,1515.58L1010.43,1515.58Z" style="fill:rgb(91,158,187);fill-rule:nonzero;"/>
                <path d="M1060.93,1552.48C1057.6,1552.41 1054.48,1551.82 1051.58,1550.68C1048.68,1549.55 1046.15,1547.85 1043.98,1545.58C1041.82,1543.32 1040.1,1540.48 1038.83,1537.08C1037.57,1533.68 1036.93,1529.72 1036.93,1525.18C1036.93,1521.38 1037.43,1517.83 1038.43,1514.53C1039.43,1511.23 1040.93,1508.35 1042.93,1505.88C1044.93,1503.41 1047.43,1501.46 1050.43,1500.03C1053.43,1498.6 1056.93,1497.88 1060.93,1497.88C1065,1497.88 1068.53,1498.6 1071.53,1500.03C1074.53,1501.46 1077.03,1503.4 1079.03,1505.83C1081.03,1508.27 1082.52,1511.15 1083.48,1514.48C1084.45,1517.82 1084.93,1521.38 1084.93,1525.18C1084.93,1529.32 1084.37,1533.05 1083.23,1536.38C1082.1,1539.72 1080.48,1542.58 1078.38,1544.98C1076.28,1547.38 1073.75,1549.23 1070.78,1550.53C1067.82,1551.83 1064.53,1552.48 1060.93,1552.48ZM1078.53,1525.18C1078.53,1522.12 1078.2,1519.25 1077.53,1516.58C1076.87,1513.91 1075.83,1511.6 1074.43,1509.63C1073.03,1507.66 1071.23,1506.12 1069.03,1504.98C1066.83,1503.85 1064.13,1503.28 1060.93,1503.28C1057.8,1503.28 1055.12,1503.9 1052.88,1505.13C1050.65,1506.37 1048.83,1508 1047.43,1510.03C1046.03,1512.07 1045,1514.4 1044.33,1517.03C1043.66,1519.66 1043.33,1522.38 1043.33,1525.18C1043.33,1528.38 1043.71,1531.33 1044.48,1534.03C1045.25,1536.73 1046.37,1539.05 1047.83,1540.98C1049.3,1542.91 1051.13,1544.41 1053.33,1545.48C1055.53,1546.55 1058.07,1547.08 1060.93,1547.08C1064.07,1547.08 1066.75,1546.47 1068.98,1545.23C1071.21,1544 1073.03,1542.35 1074.43,1540.28C1075.83,1538.22 1076.87,1535.88 1077.53,1533.28C1078.2,1530.68 1078.53,1527.98 1078.53,1525.18Z" style="fill:rgb(91,158,187);fill-rule:nonzero;"/>
                <path d="M1125.13,1551.28C1124.4,1551.41 1123.43,1551.65 1122.23,1551.98C1121.03,1552.32 1119.7,1552.48 1118.23,1552.48C1115.23,1552.48 1112.95,1551.73 1111.38,1550.23C1109.82,1548.73 1109.03,1546.05 1109.03,1542.18L1109.03,1504.28L1101.73,1504.28L1101.73,1499.28L1109.03,1499.28L1109.03,1484.88L1115.03,1484.88L1115.03,1499.28L1124.73,1499.28L1124.73,1504.28L1115.03,1504.28L1115.03,1539.78C1115.03,1541.05 1115.07,1542.15 1115.13,1543.08C1115.2,1544.02 1115.4,1544.78 1115.73,1545.38C1116.07,1545.98 1116.58,1546.41 1117.28,1546.68C1117.98,1546.95 1118.96,1547.08 1120.23,1547.08C1121.03,1547.08 1121.85,1547.02 1122.68,1546.88C1123.52,1546.75 1124.33,1546.58 1125.13,1546.38L1125.13,1551.28Z" style="fill:rgb(91,158,187);fill-rule:nonzero;"/>
                <path d="M1163.93,1551.28C1163.2,1551.41 1162.23,1551.65 1161.03,1551.98C1159.83,1552.32 1158.5,1552.48 1157.03,1552.48C1154.03,1552.48 1151.75,1551.73 1150.18,1550.23C1148.62,1548.73 1147.83,1546.05 1147.83,1542.18L1147.83,1504.28L1140.53,1504.28L1140.53,1499.28L1147.83,1499.28L1147.83,1484.88L1153.83,1484.88L1153.83,1499.28L1163.53,1499.28L1163.53,1504.28L1153.83,1504.28L1153.83,1539.78C1153.83,1541.05 1153.87,1542.15 1153.93,1543.08C1154,1544.02 1154.2,1544.78 1154.53,1545.38C1154.87,1545.98 1155.38,1546.41 1156.08,1546.68C1156.78,1546.95 1157.77,1547.08 1159.03,1547.08C1159.83,1547.08 1160.65,1547.02 1161.48,1546.88C1162.32,1546.75 1163.13,1546.58 1163.93,1546.38L1163.93,1551.28Z" style="fill:rgb(91,158,187);fill-rule:nonzero;"/>
                <path d="M1227.03,1529.58C1227.3,1532.78 1228.02,1535.5 1229.18,1537.73C1230.35,1539.97 1231.85,1541.78 1233.68,1543.18C1235.52,1544.58 1237.63,1545.6 1240.03,1546.23C1242.43,1546.87 1245,1547.18 1247.73,1547.18C1250.93,1547.18 1253.7,1546.78 1256.03,1545.98C1258.37,1545.18 1260.27,1544.1 1261.73,1542.73C1263.2,1541.37 1264.28,1539.78 1264.98,1537.98C1265.68,1536.18 1266.03,1534.28 1266.03,1532.28C1266.03,1529.48 1265.4,1527.21 1264.13,1525.48C1262.87,1523.75 1261.21,1522.33 1259.18,1521.23C1257.15,1520.13 1254.82,1519.25 1252.18,1518.58C1249.55,1517.91 1246.85,1517.27 1244.08,1516.63C1241.32,1516 1238.62,1515.25 1235.98,1514.38C1233.35,1513.52 1231.02,1512.35 1228.98,1510.88C1226.95,1509.41 1225.3,1507.53 1224.03,1505.23C1222.77,1502.93 1222.13,1500.02 1222.13,1496.48C1222.13,1494.02 1222.65,1491.62 1223.68,1489.28C1224.71,1486.95 1226.25,1484.88 1228.28,1483.08C1230.32,1481.28 1232.87,1479.85 1235.93,1478.78C1239,1477.71 1242.53,1477.18 1246.53,1477.18C1250.6,1477.18 1254.15,1477.75 1257.18,1478.88C1260.21,1480.02 1262.73,1481.57 1264.73,1483.53C1266.73,1485.5 1268.23,1487.78 1269.23,1490.38C1270.23,1492.98 1270.73,1495.75 1270.73,1498.68L1264.23,1498.68C1264.23,1495.95 1263.75,1493.58 1262.78,1491.58C1261.82,1489.58 1260.5,1487.95 1258.83,1486.68C1257.16,1485.41 1255.27,1484.48 1253.13,1483.88C1251,1483.28 1248.8,1482.98 1246.53,1482.98C1243.07,1482.98 1240.15,1483.46 1237.78,1484.43C1235.41,1485.4 1233.53,1486.65 1232.13,1488.18C1230.73,1489.71 1229.77,1491.41 1229.23,1493.28C1228.7,1495.15 1228.6,1497.02 1228.93,1498.88C1229.33,1501.21 1230.27,1503.08 1231.73,1504.48C1233.2,1505.88 1235,1507.03 1237.13,1507.93C1239.27,1508.83 1241.62,1509.57 1244.18,1510.13C1246.75,1510.7 1249.37,1511.3 1252.03,1511.93C1254.7,1512.57 1257.28,1513.32 1259.78,1514.18C1262.28,1515.05 1264.5,1516.21 1266.43,1517.68C1268.37,1519.15 1269.91,1521.03 1271.08,1523.33C1272.25,1525.63 1272.83,1528.52 1272.83,1531.98C1272.83,1538.65 1270.53,1543.82 1265.93,1547.48C1261.33,1551.15 1254.87,1552.98 1246.53,1552.98C1242.8,1552.98 1239.33,1552.5 1236.13,1551.53C1232.93,1550.57 1230.16,1549.1 1227.83,1547.13C1225.5,1545.16 1223.68,1542.73 1222.38,1539.83C1221.08,1536.93 1220.43,1533.52 1220.43,1529.58L1227.03,1529.58Z" style="fill:rgb(91,158,187);fill-rule:nonzero;"/>
                <path d="M1296.33,1551.08L1296.33,1499.28L1302.33,1499.28L1302.33,1551.08L1296.33,1551.08ZM1296.03,1487.98L1296.03,1479.08L1302.63,1479.08L1302.63,1487.98L1296.03,1487.98Z" style="fill:rgb(91,158,187);fill-rule:nonzero;"/>
                <path d="M1334.63,1551.08L1328.63,1551.08L1328.63,1499.28L1334.63,1499.28L1334.63,1506.48C1337.03,1503.95 1339.52,1501.88 1342.08,1500.28C1344.65,1498.68 1347.73,1497.88 1351.33,1497.88C1354.53,1497.88 1357.5,1498.43 1360.23,1499.53C1362.96,1500.63 1365.27,1502.55 1367.13,1505.28C1368.4,1507.15 1369.15,1509.07 1369.38,1511.03C1369.62,1513 1369.73,1515.05 1369.73,1517.18L1369.73,1551.08L1363.73,1551.08L1363.73,1517.28C1363.73,1512.62 1362.7,1509.12 1360.63,1506.78C1358.57,1504.45 1355.13,1503.28 1350.33,1503.28C1348.46,1503.28 1346.77,1503.57 1345.23,1504.13C1343.7,1504.7 1342.32,1505.45 1341.08,1506.38C1339.85,1507.32 1338.8,1508.38 1337.93,1509.58C1337.07,1510.78 1336.4,1512.05 1335.93,1513.38C1335.33,1515.05 1334.96,1516.65 1334.83,1518.18C1334.7,1519.71 1334.63,1521.38 1334.63,1523.18L1334.63,1551.08Z" style="fill:rgb(91,158,187);fill-rule:nonzero;"/>
                <path d="M1431.93,1515.58C1430.87,1511.71 1429.03,1508.7 1426.43,1506.53C1423.83,1504.37 1420.53,1503.28 1416.53,1503.28C1413.46,1503.28 1410.83,1503.91 1408.63,1505.18C1406.43,1506.45 1404.63,1508.13 1403.23,1510.23C1401.83,1512.33 1400.8,1514.7 1400.13,1517.33C1399.46,1519.96 1399.13,1522.62 1399.13,1525.28C1399.13,1528.02 1399.45,1530.68 1400.08,1533.28C1400.71,1535.88 1401.73,1538.22 1403.13,1540.28C1404.53,1542.35 1406.33,1544 1408.53,1545.23C1410.73,1546.47 1413.4,1547.08 1416.53,1547.08C1421,1547.08 1424.58,1545.85 1427.28,1543.38C1429.98,1540.91 1431.7,1537.52 1432.43,1533.18L1438.83,1533.18C1438.3,1536.05 1437.45,1538.66 1436.28,1541.03C1435.12,1543.4 1433.62,1545.43 1431.78,1547.13C1429.95,1548.83 1427.77,1550.15 1425.23,1551.08C1422.7,1552.02 1419.8,1552.48 1416.53,1552.48C1412.4,1552.48 1408.83,1551.78 1405.83,1550.38C1402.83,1548.98 1400.37,1547.07 1398.43,1544.63C1396.5,1542.2 1395.07,1539.32 1394.13,1535.98C1393.2,1532.65 1392.73,1529.08 1392.73,1525.28C1392.73,1521.68 1393.25,1518.23 1394.28,1514.93C1395.32,1511.63 1396.83,1508.71 1398.83,1506.18C1400.83,1503.65 1403.32,1501.63 1406.28,1500.13C1409.25,1498.63 1412.66,1497.88 1416.53,1497.88C1422.53,1497.88 1427.38,1499.32 1431.08,1502.18C1434.78,1505.05 1437.1,1509.52 1438.03,1515.58L1431.93,1515.58Z" style="fill:rgb(91,158,187);fill-rule:nonzero;"/>
                <rect x="1462.73" y="1479.08" width="6" height="72" style="fill:rgb(91,158,187);fill-rule:nonzero;"/>
                <path d="M1528.93,1523.88C1526.4,1524.95 1523.83,1525.65 1521.23,1525.98C1518.63,1526.32 1516.03,1526.58 1513.43,1526.78C1508.83,1527.12 1505.25,1528.15 1502.68,1529.88C1500.12,1531.62 1498.83,1534.25 1498.83,1537.78C1498.83,1539.38 1499.15,1540.77 1499.78,1541.93C1500.41,1543.1 1501.25,1544.07 1502.28,1544.83C1503.32,1545.6 1504.52,1546.16 1505.88,1546.53C1507.25,1546.9 1508.63,1547.08 1510.03,1547.08C1512.43,1547.08 1514.77,1546.78 1517.03,1546.18C1519.3,1545.58 1521.32,1544.66 1523.08,1543.43C1524.85,1542.2 1526.27,1540.63 1527.33,1538.73C1528.4,1536.83 1528.93,1534.58 1528.93,1531.98L1528.93,1523.88ZM1518.83,1520.88C1519.96,1520.75 1521.32,1520.55 1522.88,1520.28C1524.45,1520.02 1525.73,1519.65 1526.73,1519.18C1527.73,1518.71 1528.35,1517.93 1528.58,1516.83C1528.82,1515.73 1528.93,1514.71 1528.93,1513.78C1528.93,1510.71 1527.95,1508.2 1525.98,1506.23C1524.02,1504.27 1520.7,1503.28 1516.03,1503.28C1513.96,1503.28 1512.07,1503.46 1510.33,1503.83C1508.6,1504.2 1507.08,1504.83 1505.78,1505.73C1504.48,1506.63 1503.41,1507.83 1502.58,1509.33C1501.75,1510.83 1501.2,1512.71 1500.93,1514.98L1494.83,1514.98C1495.03,1511.91 1495.73,1509.3 1496.93,1507.13C1498.13,1504.96 1499.68,1503.2 1501.58,1501.83C1503.48,1500.46 1505.68,1499.46 1508.18,1498.83C1510.68,1498.2 1513.33,1497.88 1516.13,1497.88C1518.73,1497.88 1521.18,1498.16 1523.48,1498.73C1525.78,1499.3 1527.78,1500.2 1529.48,1501.43C1531.18,1502.66 1532.52,1504.32 1533.48,1506.38C1534.45,1508.45 1534.93,1510.98 1534.93,1513.98L1534.93,1542.18C1534.93,1544.52 1535.35,1546 1536.18,1546.63C1537.02,1547.27 1538.7,1547.12 1541.23,1546.18L1541.23,1550.88C1540.77,1551.02 1540.08,1551.22 1539.18,1551.48C1538.28,1551.75 1537.4,1551.88 1536.53,1551.88C1535.6,1551.88 1534.7,1551.78 1533.83,1551.58C1532.83,1551.45 1532.03,1551.13 1531.43,1550.63C1530.83,1550.13 1530.35,1549.53 1529.98,1548.83C1529.62,1548.13 1529.37,1547.37 1529.23,1546.53C1529.1,1545.7 1529.03,1544.82 1529.03,1543.88C1526.5,1546.68 1523.6,1548.82 1520.33,1550.28C1517.07,1551.75 1513.53,1552.48 1509.73,1552.48C1507.46,1552.48 1505.28,1552.18 1503.18,1551.58C1501.08,1550.98 1499.23,1550.05 1497.63,1548.78C1496.03,1547.52 1494.77,1545.97 1493.83,1544.13C1492.9,1542.3 1492.43,1540.12 1492.43,1537.58C1492.43,1528.78 1498.46,1523.58 1510.53,1521.98L1518.83,1520.88Z" style="fill:rgb(91,158,187);fill-rule:nonzero;"/>
                <path d="M1562.53,1551.08L1562.53,1499.28L1568.53,1499.28L1568.53,1551.08L1562.53,1551.08ZM1562.23,1487.98L1562.23,1479.08L1568.83,1479.08L1568.83,1487.98L1562.23,1487.98Z" style="fill:rgb(91,158,187);fill-rule:nonzero;"/>
                <path d="M1601.13,1551.08L1595.13,1551.08L1595.13,1499.28L1601.13,1499.28L1601.13,1508.98L1601.33,1508.98C1603,1504.85 1605.15,1501.96 1607.78,1500.33C1610.41,1498.7 1613.9,1497.88 1618.23,1497.88L1618.23,1504.38C1614.83,1504.32 1612.03,1504.85 1609.83,1505.98C1607.63,1507.12 1605.88,1508.65 1604.58,1510.58C1603.28,1512.52 1602.38,1514.8 1601.88,1517.43C1601.38,1520.07 1601.13,1522.82 1601.13,1525.68L1601.13,1551.08Z" style="fill:rgb(91,158,187);fill-rule:nonzero;"/>
                <path d="M902.532,1651.08L902.532,1579.08L909.332,1579.08L909.332,1645.28L947.932,1645.28L947.932,1651.08L902.532,1651.08Z" style="fill:rgb(126,214,214);fill-rule:nonzero;"/>
                <path d="M1002.13,1623.88C999.599,1624.95 997.032,1625.65 994.432,1625.98C991.832,1626.32 989.232,1626.58 986.632,1626.78C982.032,1627.12 978.449,1628.15 975.882,1629.88C973.315,1631.62 972.032,1634.25 972.032,1637.78C972.032,1639.38 972.349,1640.77 972.982,1641.93C973.615,1643.1 974.449,1644.07 975.482,1644.83C976.515,1645.6 977.715,1646.16 979.082,1646.53C980.449,1646.9 981.832,1647.08 983.232,1647.08C985.632,1647.08 987.965,1646.78 990.232,1646.18C992.499,1645.58 994.515,1644.66 996.282,1643.43C998.049,1642.2 999.465,1640.63 1000.53,1638.73C1001.6,1636.83 1002.13,1634.58 1002.13,1631.98L1002.13,1623.88ZM992.032,1620.88C993.165,1620.75 994.515,1620.55 996.082,1620.28C997.649,1620.02 998.932,1619.65 999.932,1619.18C1000.93,1618.72 1001.55,1617.93 1001.78,1616.83C1002.01,1615.73 1002.13,1614.72 1002.13,1613.78C1002.13,1610.72 1001.15,1608.2 999.182,1606.23C997.215,1604.27 993.899,1603.28 989.232,1603.28C987.165,1603.28 985.265,1603.47 983.532,1603.83C981.799,1604.2 980.282,1604.83 978.982,1605.73C977.682,1606.63 976.615,1607.83 975.782,1609.33C974.949,1610.83 974.399,1612.72 974.132,1614.98L968.032,1614.98C968.232,1611.91 968.932,1609.3 970.132,1607.13C971.332,1604.97 972.882,1603.2 974.782,1601.83C976.682,1600.47 978.882,1599.47 981.382,1598.83C983.882,1598.2 986.532,1597.88 989.332,1597.88C991.932,1597.88 994.382,1598.16 996.682,1598.73C998.982,1599.3 1000.98,1600.2 1002.68,1601.43C1004.38,1602.66 1005.72,1604.32 1006.68,1606.38C1007.65,1608.45 1008.13,1610.98 1008.13,1613.98L1008.13,1642.18C1008.13,1644.52 1008.55,1646 1009.38,1646.63C1010.22,1647.27 1011.9,1647.12 1014.43,1646.18L1014.43,1650.88C1013.97,1651.02 1013.28,1651.22 1012.38,1651.48C1011.48,1651.75 1010.6,1651.88 1009.73,1651.88C1008.8,1651.88 1007.9,1651.78 1007.03,1651.58C1006.03,1651.45 1005.23,1651.13 1004.63,1650.63C1004.03,1650.13 1003.55,1649.53 1003.18,1648.83C1002.82,1648.13 1002.57,1647.37 1002.43,1646.53C1002.3,1645.7 1002.23,1644.82 1002.23,1643.88C999.699,1646.68 996.799,1648.82 993.532,1650.28C990.265,1651.75 986.732,1652.48 982.932,1652.48C980.665,1652.48 978.482,1652.18 976.382,1651.58C974.282,1650.98 972.432,1650.05 970.832,1648.78C969.232,1647.52 967.965,1645.97 967.032,1644.13C966.099,1642.3 965.632,1640.12 965.632,1637.58C965.632,1628.78 971.665,1623.58 983.732,1621.98L992.032,1620.88Z" style="fill:rgb(126,214,214);fill-rule:nonzero;"/>
                <path d="M1078.63,1643.08L1092.23,1599.28L1098.33,1599.28L1081.53,1651.08L1075.13,1651.08L1063.83,1607.58L1063.63,1607.58L1052.13,1651.08L1044.93,1651.08L1029.13,1599.28L1035.13,1599.28L1048.53,1643.48L1060.53,1599.28L1067.23,1599.28L1078.63,1643.08Z" style="fill:rgb(126,214,214);fill-rule:nonzero;"/>
                <path d="M1124.33,1651.08L1118.33,1651.08L1118.33,1599.28L1124.33,1599.28L1124.33,1608.98L1124.53,1608.98C1126.2,1604.85 1128.35,1601.97 1130.98,1600.33C1133.62,1598.7 1137.1,1597.88 1141.43,1597.88L1141.43,1604.38C1138.03,1604.32 1135.23,1604.85 1133.03,1605.98C1130.83,1607.12 1129.08,1608.65 1127.78,1610.58C1126.48,1612.52 1125.58,1614.8 1125.08,1617.43C1124.58,1620.07 1124.33,1622.82 1124.33,1625.68L1124.33,1651.08Z" style="fill:rgb(126,214,214);fill-rule:nonzero;"/>
                <path d="M1199.83,1621.58C1199.83,1619.05 1199.48,1616.66 1198.78,1614.43C1198.08,1612.2 1197.05,1610.27 1195.68,1608.63C1194.32,1607 1192.6,1605.7 1190.53,1604.73C1188.46,1603.77 1186.1,1603.28 1183.43,1603.28C1180.77,1603.28 1178.41,1603.78 1176.38,1604.78C1174.35,1605.78 1172.62,1607.12 1171.18,1608.78C1169.75,1610.45 1168.6,1612.38 1167.73,1614.58C1166.87,1616.78 1166.3,1619.12 1166.03,1621.58L1199.83,1621.58ZM1166.03,1626.58C1166.03,1629.38 1166.4,1632.03 1167.13,1634.53C1167.87,1637.03 1168.95,1639.2 1170.38,1641.03C1171.82,1642.87 1173.63,1644.33 1175.83,1645.43C1178.03,1646.53 1180.57,1647.08 1183.43,1647.08C1187.37,1647.08 1190.73,1646.05 1193.53,1643.98C1196.33,1641.91 1198.2,1638.98 1199.13,1635.18L1205.83,1635.18C1205.1,1637.65 1204.13,1639.93 1202.93,1642.03C1201.73,1644.13 1200.23,1645.97 1198.43,1647.53C1196.63,1649.1 1194.5,1650.32 1192.03,1651.18C1189.57,1652.05 1186.7,1652.48 1183.43,1652.48C1179.3,1652.48 1175.73,1651.78 1172.73,1650.38C1169.73,1648.98 1167.27,1647.07 1165.33,1644.63C1163.4,1642.2 1161.96,1639.33 1161.03,1636.03C1160.1,1632.73 1159.63,1629.18 1159.63,1625.38C1159.63,1621.58 1160.18,1618.02 1161.28,1614.68C1162.38,1611.35 1163.95,1608.43 1165.98,1605.93C1168.02,1603.43 1170.5,1601.47 1173.43,1600.03C1176.37,1598.6 1179.7,1597.88 1183.43,1597.88C1190.57,1597.88 1196.16,1600.33 1200.23,1605.23C1204.3,1610.13 1206.3,1617.25 1206.23,1626.58L1166.03,1626.58Z" style="fill:rgb(126,214,214);fill-rule:nonzero;"/>
                <path d="M1234.93,1651.08L1228.93,1651.08L1228.93,1599.28L1234.93,1599.28L1234.93,1606.48C1237.33,1603.95 1239.82,1601.88 1242.38,1600.28C1244.95,1598.68 1248.03,1597.88 1251.63,1597.88C1254.83,1597.88 1257.8,1598.43 1260.53,1599.53C1263.27,1600.63 1265.57,1602.55 1267.43,1605.28C1268.7,1607.15 1269.45,1609.07 1269.68,1611.03C1269.91,1613 1270.03,1615.05 1270.03,1617.18L1270.03,1651.08L1264.03,1651.08L1264.03,1617.28C1264.03,1612.62 1263,1609.12 1260.93,1606.78C1258.87,1604.45 1255.43,1603.28 1250.63,1603.28C1248.77,1603.28 1247.07,1603.57 1245.53,1604.13C1244,1604.7 1242.62,1605.45 1241.38,1606.38C1240.15,1607.32 1239.1,1608.38 1238.23,1609.58C1237.37,1610.78 1236.7,1612.05 1236.23,1613.38C1235.63,1615.05 1235.27,1616.65 1235.13,1618.18C1235,1619.72 1234.93,1621.38 1234.93,1623.18L1234.93,1651.08Z" style="fill:rgb(126,214,214);fill-rule:nonzero;"/>
                <path d="M1332.23,1615.58C1331.16,1611.72 1329.33,1608.7 1326.73,1606.53C1324.13,1604.37 1320.83,1603.28 1316.83,1603.28C1313.77,1603.28 1311.13,1603.91 1308.93,1605.18C1306.73,1606.45 1304.93,1608.13 1303.53,1610.23C1302.13,1612.33 1301.1,1614.7 1300.43,1617.33C1299.77,1619.97 1299.43,1622.62 1299.43,1625.28C1299.43,1628.02 1299.75,1630.68 1300.38,1633.28C1301.02,1635.88 1302.03,1638.22 1303.43,1640.28C1304.83,1642.35 1306.63,1644 1308.83,1645.23C1311.03,1646.47 1313.7,1647.08 1316.83,1647.08C1321.3,1647.08 1324.88,1645.85 1327.58,1643.38C1330.28,1640.91 1332,1637.52 1332.73,1633.18L1339.13,1633.18C1338.6,1636.05 1337.75,1638.66 1336.58,1641.03C1335.41,1643.4 1333.91,1645.43 1332.08,1647.13C1330.25,1648.83 1328.07,1650.15 1325.53,1651.08C1323,1652.02 1320.1,1652.48 1316.83,1652.48C1312.7,1652.48 1309.13,1651.78 1306.13,1650.38C1303.13,1648.98 1300.66,1647.07 1298.73,1644.63C1296.8,1642.2 1295.37,1639.32 1294.43,1635.98C1293.5,1632.65 1293.03,1629.08 1293.03,1625.28C1293.03,1621.68 1293.55,1618.23 1294.58,1614.93C1295.62,1611.63 1297.13,1608.72 1299.13,1606.18C1301.13,1603.65 1303.62,1601.63 1306.58,1600.13C1309.55,1598.63 1312.96,1597.88 1316.83,1597.88C1322.83,1597.88 1327.68,1599.32 1331.38,1602.18C1335.08,1605.05 1337.4,1609.52 1338.33,1615.58L1332.23,1615.58Z" style="fill:rgb(126,214,214);fill-rule:nonzero;"/>
                <path d="M1399.63,1621.58C1399.63,1619.05 1399.28,1616.66 1398.58,1614.43C1397.88,1612.2 1396.85,1610.27 1395.48,1608.63C1394.12,1607 1392.4,1605.7 1390.33,1604.73C1388.27,1603.77 1385.9,1603.28 1383.23,1603.28C1380.57,1603.28 1378.21,1603.78 1376.18,1604.78C1374.15,1605.78 1372.41,1607.12 1370.98,1608.78C1369.55,1610.45 1368.4,1612.38 1367.53,1614.58C1366.66,1616.78 1366.1,1619.12 1365.83,1621.58L1399.63,1621.58ZM1365.83,1626.58C1365.83,1629.38 1366.2,1632.03 1366.93,1634.53C1367.66,1637.03 1368.75,1639.2 1370.18,1641.03C1371.62,1642.87 1373.43,1644.33 1375.63,1645.43C1377.83,1646.53 1380.37,1647.08 1383.23,1647.08C1387.16,1647.08 1390.53,1646.05 1393.33,1643.98C1396.13,1641.91 1398,1638.98 1398.93,1635.18L1405.63,1635.18C1404.9,1637.65 1403.93,1639.93 1402.73,1642.03C1401.53,1644.13 1400.03,1645.97 1398.23,1647.53C1396.43,1649.1 1394.3,1650.32 1391.83,1651.18C1389.37,1652.05 1386.5,1652.48 1383.23,1652.48C1379.1,1652.48 1375.53,1651.78 1372.53,1650.38C1369.53,1648.98 1367.07,1647.07 1365.13,1644.63C1363.2,1642.2 1361.77,1639.33 1360.83,1636.03C1359.9,1632.73 1359.43,1629.18 1359.43,1625.38C1359.43,1621.58 1359.98,1618.02 1361.08,1614.68C1362.18,1611.35 1363.75,1608.43 1365.78,1605.93C1367.82,1603.43 1370.3,1601.47 1373.23,1600.03C1376.16,1598.6 1379.5,1597.88 1383.23,1597.88C1390.37,1597.88 1395.96,1600.33 1400.03,1605.23C1404.1,1610.13 1406.1,1617.25 1406.03,1626.58L1365.83,1626.58Z" style="fill:rgb(126,214,214);fill-rule:nonzero;"/>
                <path d="M1475.23,1645.28L1492.53,1645.28C1496.27,1645.28 1499.52,1645.12 1502.28,1644.78C1505.05,1644.45 1507.33,1643.77 1509.13,1642.73C1510.93,1641.7 1512.28,1640.23 1513.18,1638.33C1514.08,1636.43 1514.53,1633.91 1514.53,1630.78C1514.53,1627.78 1514.03,1625.37 1513.03,1623.53C1512.03,1621.7 1510.6,1620.28 1508.73,1619.28C1506.87,1618.28 1504.63,1617.6 1502.03,1617.23C1499.43,1616.87 1496.53,1616.68 1493.33,1616.68L1475.23,1616.68L1475.23,1645.28ZM1475.23,1610.88L1492.43,1610.88C1495.96,1610.88 1498.93,1610.58 1501.33,1609.98C1503.73,1609.38 1505.66,1608.5 1507.13,1607.33C1508.6,1606.16 1509.65,1604.73 1510.28,1603.03C1510.91,1601.33 1511.23,1599.38 1511.23,1597.18C1511.23,1594.91 1510.87,1593 1510.13,1591.43C1509.4,1589.87 1508.23,1588.6 1506.63,1587.63C1505.03,1586.66 1502.95,1585.97 1500.38,1585.53C1497.82,1585.1 1494.66,1584.88 1490.93,1584.88L1475.23,1584.88L1475.23,1610.88ZM1468.43,1651.08L1468.43,1579.08L1494.43,1579.08C1498.63,1579.08 1502.23,1579.52 1505.23,1580.38C1508.23,1581.25 1510.68,1582.48 1512.58,1584.08C1514.48,1585.68 1515.87,1587.6 1516.73,1589.83C1517.6,1592.07 1518.03,1594.52 1518.03,1597.18C1518.03,1599.72 1517.7,1601.9 1517.03,1603.73C1516.37,1605.57 1515.5,1607.1 1514.43,1608.33C1513.37,1609.57 1512.15,1610.53 1510.78,1611.23C1509.41,1611.93 1508,1612.41 1506.53,1612.68L1506.53,1612.88C1511.53,1613.62 1515.25,1615.58 1517.68,1618.78C1520.12,1621.98 1521.33,1625.98 1521.33,1630.78C1521.33,1634.52 1520.75,1637.68 1519.58,1640.28C1518.41,1642.88 1516.8,1644.98 1514.73,1646.58C1512.66,1648.18 1510.18,1649.33 1507.28,1650.03C1504.38,1650.73 1501.23,1651.08 1497.83,1651.08L1468.43,1651.08Z" style="fill:rgb(126,214,214);fill-rule:nonzero;"/>
                <path d="M1546.13,1651.08L1546.13,1599.28L1552.13,1599.28L1552.13,1651.08L1546.13,1651.08ZM1545.83,1587.98L1545.83,1579.08L1552.43,1579.08L1552.43,1587.98L1545.83,1587.98Z" style="fill:rgb(126,214,214);fill-rule:nonzero;"/>
                <path d="M1615.93,1621.58C1615.93,1619.05 1615.58,1616.66 1614.88,1614.43C1614.18,1612.2 1613.15,1610.27 1611.78,1608.63C1610.41,1607 1608.7,1605.7 1606.63,1604.73C1604.57,1603.77 1602.2,1603.28 1599.53,1603.28C1596.87,1603.28 1594.52,1603.78 1592.48,1604.78C1590.45,1605.78 1588.72,1607.12 1587.28,1608.78C1585.85,1610.45 1584.7,1612.38 1583.83,1614.58C1582.97,1616.78 1582.4,1619.12 1582.13,1621.58L1615.93,1621.58ZM1582.13,1626.58C1582.13,1629.38 1582.5,1632.03 1583.23,1634.53C1583.97,1637.03 1585.05,1639.2 1586.48,1641.03C1587.91,1642.87 1589.73,1644.33 1591.93,1645.43C1594.13,1646.53 1596.66,1647.08 1599.53,1647.08C1603.47,1647.08 1606.83,1646.05 1609.63,1643.98C1612.43,1641.91 1614.3,1638.98 1615.23,1635.18L1621.93,1635.18C1621.2,1637.65 1620.23,1639.93 1619.03,1642.03C1617.83,1644.13 1616.33,1645.97 1614.53,1647.53C1612.73,1649.1 1610.6,1650.32 1608.13,1651.18C1605.66,1652.05 1602.8,1652.48 1599.53,1652.48C1595.4,1652.48 1591.83,1651.78 1588.83,1650.38C1585.83,1648.98 1583.37,1647.07 1581.43,1644.63C1579.5,1642.2 1578.07,1639.33 1577.13,1636.03C1576.2,1632.73 1575.73,1629.18 1575.73,1625.38C1575.73,1621.58 1576.28,1618.02 1577.38,1614.68C1578.48,1611.35 1580.05,1608.43 1582.08,1605.93C1584.12,1603.43 1586.6,1601.47 1589.53,1600.03C1592.47,1598.6 1595.8,1597.88 1599.53,1597.88C1606.66,1597.88 1612.27,1600.33 1616.33,1605.23C1620.4,1610.13 1622.4,1617.25 1622.33,1626.58L1582.13,1626.58Z" style="fill:rgb(126,214,214);fill-rule:nonzero;"/>
                <path d="M1651.33,1651.08L1645.33,1651.08L1645.33,1599.28L1651.33,1599.28L1651.33,1608.98L1651.53,1608.98C1653.2,1604.85 1655.35,1601.97 1657.98,1600.33C1660.62,1598.7 1664.1,1597.88 1668.43,1597.88L1668.43,1604.38C1665.03,1604.32 1662.23,1604.85 1660.03,1605.98C1657.83,1607.12 1656.08,1608.65 1654.78,1610.58C1653.48,1612.52 1652.58,1614.8 1652.08,1617.43C1651.58,1620.07 1651.33,1622.82 1651.33,1625.68L1651.33,1651.08Z" style="fill:rgb(126,214,214);fill-rule:nonzero;"/>
                <path d="M1733.13,1643.08L1746.73,1599.28L1752.83,1599.28L1736.03,1651.08L1729.63,1651.08L1718.33,1607.58L1718.13,1607.58L1706.63,1651.08L1699.43,1651.08L1683.63,1599.28L1689.63,1599.28L1703.03,1643.48L1715.03,1599.28L1721.73,1599.28L1733.13,1643.08Z" style="fill:rgb(126,214,214);fill-rule:nonzero;"/>
                <path d="M1793.13,1652.48C1789.8,1652.41 1786.68,1651.82 1783.78,1650.68C1780.88,1649.55 1778.35,1647.85 1776.18,1645.58C1774.02,1643.32 1772.3,1640.48 1771.03,1637.08C1769.77,1633.68 1769.13,1629.72 1769.13,1625.18C1769.13,1621.38 1769.63,1617.83 1770.63,1614.53C1771.63,1611.23 1773.13,1608.35 1775.13,1605.88C1777.13,1603.41 1779.63,1601.47 1782.63,1600.03C1785.63,1598.6 1789.13,1597.88 1793.13,1597.88C1797.2,1597.88 1800.73,1598.6 1803.73,1600.03C1806.73,1601.47 1809.23,1603.4 1811.23,1605.83C1813.23,1608.27 1814.72,1611.15 1815.68,1614.48C1816.65,1617.82 1817.13,1621.38 1817.13,1625.18C1817.13,1629.32 1816.57,1633.05 1815.43,1636.38C1814.3,1639.72 1812.68,1642.58 1810.58,1644.98C1808.48,1647.38 1805.95,1649.23 1802.98,1650.53C1800.02,1651.83 1796.73,1652.48 1793.13,1652.48ZM1810.73,1625.18C1810.73,1622.12 1810.4,1619.25 1809.73,1616.58C1809.07,1613.91 1808.03,1611.6 1806.63,1609.63C1805.23,1607.66 1803.43,1606.12 1801.23,1604.98C1799.03,1603.85 1796.33,1603.28 1793.13,1603.28C1790,1603.28 1787.32,1603.9 1785.08,1605.13C1782.85,1606.37 1781.03,1608 1779.63,1610.03C1778.23,1612.07 1777.2,1614.4 1776.53,1617.03C1775.87,1619.66 1775.53,1622.38 1775.53,1625.18C1775.53,1628.38 1775.91,1631.33 1776.68,1634.03C1777.45,1636.73 1778.57,1639.05 1780.03,1640.98C1781.5,1642.91 1783.33,1644.41 1785.53,1645.48C1787.73,1646.55 1790.27,1647.08 1793.13,1647.08C1796.27,1647.08 1798.95,1646.47 1801.18,1645.23C1803.41,1644 1805.23,1642.35 1806.63,1640.28C1808.03,1638.22 1809.07,1635.88 1809.73,1633.28C1810.4,1630.68 1810.73,1627.98 1810.73,1625.18Z" style="fill:rgb(126,214,214);fill-rule:nonzero;"/>
                <path d="M1845.43,1651.08L1839.43,1651.08L1839.43,1599.28L1845.43,1599.28L1845.43,1608.98L1845.63,1608.98C1847.3,1604.85 1849.45,1601.97 1852.08,1600.33C1854.72,1598.7 1858.2,1597.88 1862.53,1597.88L1862.53,1604.38C1859.13,1604.32 1856.33,1604.85 1854.13,1605.98C1851.93,1607.12 1850.18,1608.65 1848.88,1610.58C1847.58,1612.52 1846.68,1614.8 1846.18,1617.43C1845.68,1620.07 1845.43,1622.82 1845.43,1625.68L1845.43,1651.08Z" style="fill:rgb(126,214,214);fill-rule:nonzero;"/>
                <path d="M1901.63,1651.28C1900.9,1651.41 1899.93,1651.65 1898.73,1651.98C1897.53,1652.32 1896.2,1652.48 1894.73,1652.48C1891.73,1652.48 1889.45,1651.73 1887.88,1650.23C1886.32,1648.73 1885.53,1646.05 1885.53,1642.18L1885.53,1604.28L1878.23,1604.28L1878.23,1599.28L1885.53,1599.28L1885.53,1584.88L1891.53,1584.88L1891.53,1599.28L1901.23,1599.28L1901.23,1604.28L1891.53,1604.28L1891.53,1639.78C1891.53,1641.05 1891.57,1642.15 1891.63,1643.08C1891.7,1644.02 1891.9,1644.78 1892.23,1645.38C1892.57,1645.98 1893.08,1646.41 1893.78,1646.68C1894.48,1646.95 1895.47,1647.08 1896.73,1647.08C1897.53,1647.08 1898.35,1647.02 1899.18,1646.88C1900.02,1646.75 1900.83,1646.58 1901.63,1646.38L1901.63,1651.28Z" style="fill:rgb(126,214,214);fill-rule:nonzero;"/>
                <path d="M1922.23,1651.08L1922.23,1579.08L1928.23,1579.08L1928.23,1606.48C1930.63,1603.95 1933.12,1601.88 1935.68,1600.28C1938.25,1598.68 1941.33,1597.88 1944.93,1597.88C1948.13,1597.88 1951.1,1598.43 1953.83,1599.53C1956.57,1600.63 1958.87,1602.55 1960.73,1605.28C1962,1607.15 1962.75,1609.07 1962.98,1611.03C1963.22,1613 1963.33,1615.05 1963.33,1617.18L1963.33,1651.08L1957.33,1651.08L1957.33,1617.28C1957.33,1612.62 1956.3,1609.12 1954.23,1606.78C1952.16,1604.45 1948.73,1603.28 1943.93,1603.28C1942.07,1603.28 1940.37,1603.57 1938.83,1604.13C1937.3,1604.7 1935.91,1605.45 1934.68,1606.38C1933.45,1607.32 1932.4,1608.38 1931.53,1609.58C1930.66,1610.78 1930,1612.05 1929.53,1613.38C1928.93,1615.05 1928.57,1616.65 1928.43,1618.18C1928.3,1619.72 1928.23,1621.38 1928.23,1623.18L1928.23,1651.08L1922.23,1651.08Z" style="fill:rgb(126,214,214);fill-rule:nonzero;"/>
            </g>
        </g>
    </g>
</svg>
